<?xml version="1.0" standalone="no"?>
<!DOCTYPE svg PUBLIC "-//W3C//DTD SVG 20010904//EN"
 "http://www.w3.org/TR/2001/REC-SVG-20010904/DTD/svg10.dtd">
<svg version="1.0" xmlns="http://www.w3.org/2000/svg"
 width="1280.000000pt" height="1280.000000pt" viewBox="0 0 1280.000000 1280.000000"
 preserveAspectRatio="xMidYMid meet">

<g transform="translate(0.000000,1280.000000) scale(0.100000,-0.100000)"
fill="#000000" stroke="none">
<path d="M6210 12284 c-358 -19 -588 -43 -846 -89 -849 -151 -1647 -479 -2347
-967 -1263 -878 -2139 -2208 -2441 -3708 -310 -1535 5 -3147 867 -4448 1198
-1808 3264 -2817 5427 -2651 1234 94 2404 570 3360 1368 347 289 679 640 957
1012 138 185 305 440 298 456 -2 8 -1 12 4 9 5 -4 30 29 55 72 48 82 54 98 34
86 -8 -4 -10 -3 -5 2 5 5 14 9 20 9 11 0 226 410 227 433 0 7 -5 10 -12 6 -7
-4 -8 -3 -4 5 4 6 11 9 16 6 10 -6 120 252 188 441 172 479 272 928 329 1474
24 237 24 848 0 1085 -64 610 -188 1125 -399 1655 -73 183 -269 590 -358 745
-413 713 -949 1317 -1605 1810 -907 681 -2003 1092 -3135 1175 -152 11 -531
19 -630 14z m590 -104 c367 -25 705 -80 1060 -171 627 -161 1235 -433 1785
-798 933 -619 1692 -1532 2133 -2566 429 -1006 567 -2099 402 -3195 -155
-1030 -613 -2041 -1287 -2848 -928 -1110 -2212 -1830 -3638 -2042 -308 -46
-445 -54 -850 -55 -397 0 -498 6 -795 46 -2136 290 -3939 1734 -4694 3760
-378 1016 -463 2130 -246 3210 151 746 463 1484 898 2119 803 1174 2000 2015
3372 2369 321 83 712 147 1035 170 173 12 655 12 825 1z m5437 -4702 c-3 -8
-6 -5 -6 6 -1 11 2 17 5 13 3 -3 4 -12 1 -19z m30 -170 c-3 -8 -6 -5 -6 6 -1
11 2 17 5 13 3 -3 4 -12 1 -19z m10 -70 c-3 -8 -6 -5 -6 6 -1 11 2 17 5 13 3
-3 4 -12 1 -19z m10 -60 c-3 -7 -5 -2 -5 12 0 14 2 19 5 13 2 -7 2 -19 0 -25z
m10 -85 c-3 -10 -5 -4 -5 12 0 17 2 24 5 18 2 -7 2 -21 0 -30z m10 -90 c-3
-10 -5 -4 -5 12 0 17 2 24 5 18 2 -7 2 -21 0 -30z m10 -80 c-3 -10 -5 -2 -5
17 0 19 2 27 5 18 2 -10 2 -26 0 -35z m10 -130 c-2 -16 -4 -5 -4 22 0 28 2 40
4 28 2 -13 2 -35 0 -50z m10 -170 c-2 -21 -4 -4 -4 37 0 41 2 58 4 38 2 -21 2
-55 0 -75z m10 -380 c-1 -54 -3 -10 -3 97 0 107 2 151 3 98 2 -54 2 -142 0
-195z m-10 -250 c-2 -21 -4 -4 -4 37 0 41 2 58 4 38 2 -21 2 -55 0 -75z m-10
-150 c-2 -16 -4 -3 -4 27 0 30 2 43 4 28 2 -16 2 -40 0 -55z m-10 -115 c-2
-13 -4 -5 -4 17 -1 22 1 32 4 23 2 -10 2 -28 0 -40z m-10 -80 c-2 -13 -4 -5
-4 17 -1 22 1 32 4 23 2 -10 2 -28 0 -40z m-10 -85 c-3 -10 -5 -2 -5 17 0 19
2 27 5 18 2 -10 2 -26 0 -35z m-10 -80 c-3 -10 -5 -2 -5 17 0 19 2 27 5 18 2
-10 2 -26 0 -35z m-10 -55 c-3 -7 -5 -2 -5 12 0 14 2 19 5 13 2 -7 2 -19 0
-25z m-10 -65 c-3 -10 -5 -4 -5 12 0 17 2 24 5 18 2 -7 2 -21 0 -30z m-10 -65
c-3 -7 -5 -2 -5 12 0 14 2 19 5 13 2 -7 2 -19 0 -25z m-10 -50 c-3 -7 -5 -2
-5 12 0 14 2 19 5 13 2 -7 2 -19 0 -25z m-10 -50 c-3 -7 -5 -2 -5 12 0 14 2
19 5 13 2 -7 2 -19 0 -25z m-13 -72 c-3 -21 -8 -35 -11 -32 -2 2 -1 20 3 40 3
21 8 35 11 32 2 -2 1 -20 -3 -40z m-17 -78 c-3 -7 -5 -2 -5 12 0 14 2 19 5 13
2 -7 2 -19 0 -25z m-10 -40 c-3 -8 -6 -5 -6 6 -1 11 2 17 5 13 3 -3 4 -12 1
-19z m-10 -40 c-3 -8 -6 -5 -6 6 -1 11 2 17 5 13 3 -3 4 -12 1 -19z m-10 -40
c-3 -8 -6 -5 -6 6 -1 11 2 17 5 13 3 -3 4 -12 1 -19z m-13 -62 c-3 -15 -8 -25
-11 -23 -2 3 -1 17 3 31 3 15 8 25 11 23 2 -3 1 -17 -3 -31z m-17 -58 c-3 -8
-6 -5 -6 6 -1 11 2 17 5 13 3 -3 4 -12 1 -19z m-13 -52 c-3 -15 -8 -25 -11
-23 -2 3 -1 17 3 31 3 15 8 25 11 23 2 -3 1 -17 -3 -31z m-17 -58 c-3 -8 -6
-5 -6 6 -1 11 2 17 5 13 3 -3 4 -12 1 -19z m-126 -385 c-12 -20 -14 -14 -5 12
4 9 9 14 11 11 3 -2 0 -13 -6 -23z m-30 -80 c-12 -20 -14 -14 -5 12 4 9 9 14
11 11 3 -2 0 -13 -6 -23z m-58 -148 c-3 -9 -8 -14 -10 -11 -3 3 -2 9 2 15 9
16 15 13 8 -4z"/>
<path d="M6050 12019 c-1116 -69 -2184 -465 -3085 -1143 -387 -290 -825 -731
-1122 -1127 -563 -750 -937 -1647 -1072 -2564 -70 -475 -79 -1027 -26 -1485
132 -1125 566 -2130 1301 -3015 135 -164 520 -548 683 -684 964 -802 2097
-1254 3336 -1331 2031 -126 3987 859 5107 2570 1052 1607 1217 3643 439 5405
-700 1583 -2105 2772 -3786 3205 -570 146 -1187 205 -1775 169z m-1350 -2519
c339 -35 640 -117 1275 -348 l290 -105 230 -2 c133 0 260 -6 302 -14 151 -26
575 45 803 134 140 55 396 89 790 105 234 10 529 1 613 -19 23 -6 46 -20 58
-38 12 -15 86 -91 164 -168 l143 -140 -24 -595 c-13 -327 -40 -993 -59 -1479
-20 -487 -37 -886 -38 -887 -1 -2 -23 2 -47 7 -405 93 -613 126 -1300 204
-124 14 -286 32 -360 41 l-135 15 -62 -58 c-194 -184 -530 -266 -952 -234
-294 23 -460 82 -611 219 -32 29 -74 74 -93 100 l-35 47 -419 -17 c-230 -9
-584 -24 -788 -32 -775 -32 -966 -39 -971 -34 -3 3 18 365 46 804 79 1243 99
1555 120 1899 28 443 24 421 63 429 17 3 58 24 92 46 110 72 202 101 366 119
118 12 426 13 539 1z m-2474 -3529 c43 -16 138 -52 209 -81 284 -113 461 -170
645 -205 43 -8 112 -16 187 -20 198 -11 258 -68 258 -245 0 -80 -4 -102 -24
-139 -35 -67 -104 -134 -163 -160 -29 -13 -61 -27 -71 -32 -9 -5 -38 -12 -63
-16 -45 -6 -46 -7 -76 -72 -68 -146 -209 -424 -239 -469 -111 -162 -235 -195
-340 -90 -74 74 -269 464 -269 538 0 8 -6 26 -13 40 -12 23 -27 87 -57 240
-18 95 -40 251 -50 355 -6 55 -12 114 -15 130 -11 61 -16 255 -8 255 5 0 45
-13 89 -29z m8454 -135 c0 -29 -50 -245 -85 -366 -13 -47 -29 -105 -35 -130
-6 -25 -32 -103 -57 -175 -66 -189 -74 -209 -82 -220 -5 -5 -14 -26 -20 -46
-38 -119 -246 -446 -345 -541 -79 -78 -159 -97 -236 -58 -44 22 -102 89 -125
143 -8 20 -17 37 -19 37 -2 0 -4 -26 -4 -58 -3 -227 -236 -370 -527 -322 -171
28 -333 184 -352 338 -7 63 10 120 52 175 38 50 42 59 22 51 -20 -7 -152 23
-196 45 -82 42 -151 156 -151 250 0 84 18 130 75 186 149 148 424 151 578 6
40 -37 47 -36 21 5 -25 38 -30 149 -9 220 37 128 92 162 283 175 68 5 142 12
165 15 23 3 53 7 67 9 14 2 45 6 70 10 43 6 143 31 240 61 25 8 47 14 50 14 3
0 37 12 75 26 39 14 90 31 115 39 25 7 126 41 225 73 99 33 186 61 193 61 6 1
12 -10 12 -23z m-6765 -523 c198 -65 269 -232 170 -401 -65 -111 -138 -154
-286 -168 -35 -3 -66 -8 -68 -10 -2 -2 10 -18 26 -37 71 -81 67 -193 -13 -309
-76 -112 -164 -170 -314 -208 -154 -40 -334 9 -432 119 -88 98 -95 221 -20
353 37 64 115 140 169 165 21 10 40 20 43 24 9 9 133 31 183 31 47 1 59 12 36
35 -14 14 -31 87 -31 134 0 49 31 105 91 166 59 58 94 78 201 109 85 25 162
25 245 -3z m576 -323 c30 -5 87 -26 127 -46 64 -31 79 -44 113 -96 25 -39 41
-78 45 -109 l7 -49 39 41 c22 23 70 55 106 72 147 69 380 38 482 -65 66 -67
71 -76 80 -161 10 -87 -7 -149 -58 -207 -40 -47 -73 -66 -157 -90 l-60 -17 40
-21 c52 -27 109 -87 130 -137 16 -40 23 -125 10 -144 -3 -6 -4 -11 -2 -11 2 0
19 29 36 65 36 74 88 120 176 156 l54 22 -46 31 c-72 47 -106 103 -111 180
-14 215 191 364 450 328 105 -15 176 -49 237 -111 57 -58 81 -119 81 -200 0
-106 -60 -191 -163 -234 l-48 -20 47 -23 c93 -45 153 -124 170 -224 l7 -45 11
56 c19 93 85 171 176 209 39 16 38 26 -4 40 -90 30 -160 132 -160 235 1 159
127 281 316 305 188 24 357 -49 425 -183 68 -136 23 -277 -112 -345 l-40 -20
30 -8 c175 -42 281 -226 230 -399 -46 -160 -187 -259 -385 -272 -109 -7 -187
8 -277 52 -114 56 -203 177 -203 276 0 18 -4 28 -10 24 -5 -3 -10 -18 -10 -33
0 -66 -84 -189 -162 -238 -179 -113 -485 -82 -618 62 -64 69 -93 143 -93 231
l0 72 -23 -55 c-28 -69 -63 -115 -125 -164 -61 -48 -185 -90 -265 -90 -159 0
-312 54 -376 132 -64 78 -83 125 -82 206 0 39 -4 72 -8 72 -4 0 -8 -4 -8 -8 0
-5 -16 -29 -35 -54 -136 -175 -447 -209 -652 -73 -177 117 -187 361 -21 510
70 63 107 80 211 95 l89 12 -25 27 c-46 49 -58 77 -60 142 -7 202 221 346 474
299z m3901 -60 c73 -27 158 -104 192 -172 48 -96 30 -209 -43 -270 l-29 -25
70 -12 c133 -22 225 -91 281 -209 28 -58 32 -78 32 -147 0 -67 -5 -88 -27
-130 -70 -134 -227 -215 -416 -215 -142 0 -291 67 -361 162 l-31 42 0 -46 c0
-134 -104 -257 -258 -307 -302 -97 -601 61 -620 329 -3 53 0 82 13 117 21 55
84 127 133 152 l34 18 -58 21 c-79 29 -127 71 -160 139 -68 139 -10 299 137
372 80 40 155 54 259 49 103 -5 191 -41 258 -106 39 -39 42 -40 42 -19 0 42
30 114 65 154 40 47 130 97 211 118 80 20 202 13 276 -15z"/>
<path d="M4046 9189 c3 -123 11 -714 19 -1313 8 -599 16 -1090 19 -1093 2 -2
21 4 43 15 43 22 136 44 268 63 140 21 591 18 733 -4 147 -23 234 -51 277 -88
18 -17 49 -32 67 -35 l33 -6 0 144 c1 176 19 268 80 393 54 111 119 186 233
267 48 33 89 63 92 65 3 3 -9 14 -25 26 -61 43 -159 144 -196 200 -68 104
-109 262 -109 415 0 180 46 325 145 462 44 59 159 170 214 205 l44 27 -24 19
c-53 41 -187 103 -312 144 -289 94 -681 174 -1327 269 -129 19 -245 38 -257
42 l-22 6 5 -223z m662 -156 l-3 -108 -127 -3 -128 -3 0 111 0 110 130 0 131
0 -3 -107z m612 -263 l0 -150 -165 0 -165 0 0 150 0 150 165 0 165 0 0 -150z
m-650 -315 l0 -135 -145 0 -145 0 0 135 0 135 145 0 145 0 0 -135z m610 -245
l0 -110 -125 0 -125 0 0 110 0 110 125 0 125 0 0 -110z m-640 -330 l0 -120
-165 0 -165 0 0 120 0 120 165 0 165 0 0 -120z m560 -280 l0 -120 -120 0 -120
0 0 120 0 120 120 0 120 0 0 -120z m-640 -295 l0 -125 -125 0 -125 0 0 118 c0
65 3 122 7 125 3 4 60 7 125 7 l118 0 0 -125z m618 -207 l-3 -113 -145 0 -145
0 -3 113 -3 112 151 0 151 0 -3 -112z"/>
<path d="M7950 9059 c-363 -19 -660 -67 -773 -126 l-29 -14 44 -28 c60 -38
166 -146 213 -217 82 -123 125 -273 125 -434 0 -131 -23 -228 -82 -349 -44
-92 -61 -116 -147 -203 l-98 -98 45 -26 c25 -15 79 -59 121 -99 140 -134 226
-319 239 -518 7 -101 2 -233 -12 -314 l-8 -43 620 0 620 0 6 133 c3 72 11 346
16 607 10 445 21 932 36 1498 l6 242 -393 -1 c-217 -1 -464 -6 -549 -10z m828
-226 l3 -123 -126 0 -125 0 0 125 0 126 123 -3 122 -3 3 -122z m-550 -205 l3
-128 -141 0 -140 0 0 123 c0 68 3 127 7 131 4 3 66 5 137 4 l131 -3 3 -127z
m552 -363 l0 -145 -150 0 -150 0 0 145 0 145 150 0 150 0 0 -145z m-600 -255
l0 -120 -144 0 -144 0 -1 103 c-1 57 1 111 5 120 5 15 24 17 145 17 l139 0 0
-120z m600 -410 l0 -150 -150 0 -150 0 0 150 0 150 150 0 150 0 0 -150z m-630
-170 l0 -150 -150 0 -150 0 0 150 0 150 150 0 150 0 0 -150z m590 -415 l0
-145 -150 0 -150 0 0 145 0 145 150 0 150 0 0 -145z m-640 -155 l0 -150 -145
0 -145 0 0 150 0 150 145 0 145 0 0 -150z"/>
<path d="M6470 8496 c-138 -41 -187 -97 -210 -240 -21 -132 18 -254 107 -337
60 -56 106 -73 198 -72 136 0 226 74 269 222 34 117 9 269 -58 347 -63 74
-204 111 -306 80z"/>
<path d="M6487 7329 c-129 -30 -226 -145 -257 -307 -19 -93 -8 -263 20 -336
27 -71 62 -106 149 -149 57 -28 77 -32 165 -35 138 -5 201 17 246 87 49 77 72
155 77 261 9 165 -31 292 -122 389 -83 88 -168 116 -278 90z"/>
<path d="M2275 5800 c-5 -8 -2 -49 10 -170 4 -30 8 -74 10 -97 2 -24 6 -46 9
-51 5 -9 25 -123 31 -177 4 -39 53 -244 64 -270 12 -28 41 -125 41 -139 0 -12
5 -23 73 -145 26 -46 47 -88 47 -94 0 -17 71 -116 95 -131 20 -13 26 -12 54 5
17 10 48 45 69 77 45 69 237 454 247 495 4 15 11 30 16 33 5 3 9 16 9 28 0 22
5 24 78 29 94 7 147 31 212 96 53 53 67 98 55 172 -9 52 -36 65 -160 74 -177
13 -502 83 -539 117 -6 4 -17 8 -25 8 -8 0 -66 21 -130 46 -64 25 -149 58
-188 74 -40 16 -75 25 -78 20z"/>
<path d="M10275 5592 c-191 -64 -296 -97 -340 -107 -182 -40 -217 -45 -430
-60 -147 -11 -178 -24 -194 -82 -26 -92 -3 -149 81 -204 32 -20 75 -40 96 -43
20 -3 58 -8 83 -12 45 -6 47 -7 53 -46 7 -41 45 -160 91 -283 14 -38 35 -98
46 -131 28 -82 79 -173 111 -197 26 -20 27 -20 62 2 19 12 52 45 73 74 20 29
40 54 43 57 3 3 10 12 15 22 6 9 35 54 66 100 31 45 67 103 81 128 46 82 133
291 174 415 39 123 85 280 102 353 17 74 18 82 3 81 -9 0 -106 -30 -216 -67z"/>
<path d="M8817 5136 c-59 -22 -117 -64 -128 -94 -33 -85 -14 -158 58 -222 77
-68 187 -84 276 -41 91 44 124 124 89 213 -43 108 -193 181 -295 144z"/>
<path d="M9230 5096 c0 -5 10 -24 21 -43 39 -62 24 -184 -29 -239 l-21 -22 92
-4 c76 -4 102 -9 147 -32 73 -38 121 -76 155 -126 31 -45 41 -47 24 -4 -6 16
-12 36 -14 44 -2 8 -21 62 -43 120 -22 58 -44 118 -49 133 -7 24 -20 32 -82
53 -97 33 -121 46 -164 91 -20 20 -37 34 -37 29z"/>
<path d="M9120 4686 c-64 -18 -83 -30 -128 -81 -47 -53 -59 -102 -42 -166 27
-98 84 -163 186 -211 59 -27 73 -30 134 -26 123 9 222 77 248 170 5 20 8 38 7
40 -2 2 -7 19 -10 38 -9 51 -55 128 -98 165 -50 43 -155 85 -210 84 -23 0 -62
-6 -87 -13z"/>
<path d="M3669 5195 c-25 -13 -62 -41 -83 -62 -100 -100 -87 -220 28 -278 98
-49 215 -25 298 62 74 76 90 161 41 220 -66 82 -189 107 -284 58z"/>
<path d="M3333 4767 c-23 -7 -45 -15 -49 -19 -4 -5 -15 -8 -25 -8 -28 0 -132
-109 -158 -165 -73 -155 24 -283 221 -291 71 -3 83 -1 140 28 109 56 183 151
195 248 5 41 1 59 -21 104 -24 48 -34 58 -84 82 -65 31 -155 40 -219 21z"/>
<path d="M4326 4874 c-61 -19 -137 -93 -153 -149 -21 -70 3 -136 65 -178 146
-102 344 -28 383 143 9 41 -14 102 -52 137 -57 52 -163 72 -243 47z"/>
<path d="M5015 4705 c-74 -39 -106 -81 -126 -165 -16 -68 45 -155 130 -185
118 -41 252 8 300 110 61 130 -26 252 -188 262 -57 4 -73 1 -116 -22z"/>
<path d="M5831 4609 c-96 -19 -161 -95 -161 -190 0 -66 23 -108 81 -146 39
-26 51 -28 134 -28 85 0 95 2 133 29 117 81 106 255 -20 314 -54 25 -110 32
-167 21z"/>
<path d="M6600 4589 c-193 -81 -155 -328 55 -363 53 -9 130 9 178 40 44 29 76
90 77 144 0 52 -38 120 -87 154 -36 25 -53 30 -120 33 -43 1 -89 -2 -103 -8z"/>
<path d="M4677 4495 c-51 -47 -124 -75 -196 -75 -23 0 -41 -2 -41 -5 0 -3 22
-26 49 -52 52 -51 71 -95 71 -170 0 -24 3 -43 8 -42 4 0 23 20 42 44 39 49
147 111 212 121 21 4 38 10 38 15 0 5 -4 9 -10 9 -17 0 -80 62 -95 94 -8 17
-18 47 -22 67 l-8 37 -48 -43z"/>
<path d="M4082 4419 c-89 -15 -161 -65 -207 -144 -103 -175 18 -346 240 -340
56 1 86 8 121 25 121 63 197 204 164 305 -37 113 -174 179 -318 154z"/>
<path d="M4888 4226 c-93 -27 -143 -71 -182 -159 -46 -103 -29 -186 52 -259
52 -47 100 -62 197 -62 65 0 89 4 128 24 134 68 199 232 135 342 -28 46 -71
84 -123 107 -44 19 -153 23 -207 7z"/>
<path d="M5777 4110 c-188 -32 -278 -251 -160 -389 50 -60 103 -83 194 -89
143 -8 249 55 283 169 31 102 15 163 -58 235 -67 65 -156 91 -259 74z"/>
<path d="M6617 4084 c-108 -33 -181 -156 -158 -265 20 -92 59 -141 146 -181
97 -44 250 -23 323 45 56 52 84 156 63 233 -29 108 -138 185 -260 183 -36 0
-88 -7 -114 -15z"/>
<path d="M8120 4814 c-72 -31 -110 -86 -110 -159 0 -168 221 -262 368 -155 48
34 76 98 67 149 -8 43 -37 100 -62 123 -59 54 -188 74 -263 42z"/>
<path d="M7433 4671 c-76 -20 -136 -78 -149 -146 -14 -79 48 -179 132 -211 62
-24 158 -15 218 20 124 73 109 248 -28 318 -43 22 -125 31 -173 19z"/>
<path d="M7885 4440 c-9 -50 -39 -96 -92 -136 -42 -32 -41 -44 6 -44 33 0 139
-61 175 -100 l36 -40 0 32 c0 49 41 128 88 171 23 20 36 37 28 37 -44 0 -147
44 -189 80 l-45 40 -7 -40z"/>
<path d="M8337 4343 c-139 -52 -194 -179 -133 -308 75 -158 286 -212 433 -111
144 99 114 307 -58 400 -68 38 -170 45 -242 19z"/>
<path d="M7520 4171 c-76 -23 -138 -81 -160 -147 -18 -54 -7 -145 24 -199 50
-85 132 -128 243 -128 61 0 82 5 138 32 88 44 118 88 123 181 9 159 -103 271
-270 269 -40 0 -84 -4 -98 -8z"/>
</g>
</svg>
